<mxfile host="app.diagrams.net" modified="2023-05-10T04:03:18.128Z" agent="Mozilla/5.0 (Windows NT 10.0; Win64; x64) AppleWebKit/537.36 (KHTML, like Gecko) Chrome/112.0.0.0 Safari/537.36" version="21.2.9" etag="376vjJyFDlVeYbxZ0FAp" type="github">
  <diagram name="第 1 页" id="g7T1fWpcSxFM8dqwIkX_">
    <mxGraphModel>
      <root>
        <mxCell id="0" />
        <mxCell id="1" parent="0" />
      </root>
    </mxGraphModel>
  </diagram>
</mxfile>
